Taylor Swift - You Belong With Me

(1920x1080p)

Info:

Video
ID                                             : 17 (0x11)
Menu ID                                  : 1 (0x1)
Format                                   : MPEG Video
Format version                    : Version 2
Format profile                      : Main@High
Format settings, BVOP      : Yes
Format settings, Matrix     : Default
Codec ID                                : 2
Duration                                : 3mn 46s
Bit rate mode                       : Variable
Bit rate                                  : 13.9 Mbps
Nominal bit rate                  : 22.0 Mbps
Width                                     : 1 920 pixels
Height                                    : 1 080 pixels
Display aspect ratio           : 16:9
Frame rate                           : 29.970 fps
Color space                         : YUV
Chroma subsampling       : 4:2:0
Bit depth                              : 8 bits
Bits/(Pixel*Frame)             : 0.224
Stream size                        : 376 MiB (92%)

Audio
ID                                           : 20 (0x14)
Menu ID                               : 1 (0x1)
Format                                 : AC-3
Format/Info                         : Audio Coding 3
Mode extension                : CM (complete main)
Codec ID                             : 129
Duration                              : 3mn 46s
Bit rate mode                    : Constant
Bit rate                                : 384 Kbps
Channel(s)                         : 2 channels
Channel positions            : Front: L R
Sampling rate                   : 48.0 KHz
Bit depth                             : 16 bits
Video delay                        : -659ms
Stream size                       : 10.4 MiB (3%)
Language                           : English


PLEASE SEED..........................

Follow Me:

Screen:

<img>http://img713.imageshack.us/img713/4518/vlcsnap2010100113h27m12.png</img>